<?xml version="1.0" standalone="no"?>
<!DOCTYPE svg PUBLIC "-//W3C//DTD SVG 20010904//EN"
 "http://www.w3.org/TR/2001/REC-SVG-20010904/DTD/svg10.dtd">
<svg version="1.0" xmlns="http://www.w3.org/2000/svg"
 width="350.000000pt" height="350.000000pt" viewBox="0 0 350.000000 350.000000"
 preserveAspectRatio="xMidYMid meet">
<metadata>
Created by potrace 1.11, written by Peter Selinger 2001-2013
</metadata>
<g transform="translate(0.000000,350.000000) scale(0.100000,-0.100000)"
fill="#000000" stroke="none">
<path d="M834 3132 c-29 -48 -95 -161 -147 -252 -52 -91 -184 -318 -292 -505
-109 -187 -208 -359 -222 -383 -13 -23 -53 -92 -88 -153 -56 -96 -63 -114 -53
-132 9 -19 384 -669 537 -932 25 -44 53 -92 61 -107 8 -14 69 -119 135 -232
l120 -206 865 0 866 0 154 267 c85 147 160 275 165 285 6 10 123 212 260 450
138 237 258 446 267 463 l17 32 -190 329 c-105 181 -201 347 -213 369 -13 22
-99 171 -191 330 -93 160 -174 299 -180 310 -6 11 -28 50 -50 88 l-39 67 -866
0 -865 0 -51 -88z m1858 -357 c92 -160 174 -301 181 -315 8 -14 53 -92 101
-173 47 -82 97 -167 110 -190 13 -23 56 -98 96 -167 40 -69 83 -143 96 -165
l22 -40 -92 -160 c-85 -147 -184 -319 -419 -725 -50 -85 -128 -220 -173 -300
-46 -79 -90 -147 -98 -150 -12 -4 -1483 -5 -1533 -1 -6 1 -28 31 -49 69 -20
37 -108 189 -194 337 -86 149 -241 416 -345 595 -104 178 -188 329 -188 335 0
13 761 1328 772 1335 5 3 355 5 777 5 l768 -1 168 -289z"/>
<path d="M934 2864 c-44 -75 -86 -148 -94 -163 -9 -14 -35 -60 -58 -101 -24
-41 -52 -91 -64 -110 -108 -184 -430 -744 -434 -755 -4 -8 29 -75 74 -152 44
-76 89 -154 99 -173 11 -19 50 -86 87 -149 36 -62 66 -115 66 -118 0 -2 8 -16
19 -31 10 -15 101 -170 201 -345 l183 -317 737 0 737 0 138 238 c76 130 149
257 162 282 14 25 38 65 53 90 14 25 45 77 67 115 22 39 98 168 167 288 70
120 132 229 138 242 9 21 -3 46 -107 227 -65 111 -126 218 -137 236 -23 42
-69 121 -200 347 -57 99 -144 249 -193 333 l-88 152 -737 0 -738 0 -78 -136z
m1676 -155 c80 -139 157 -272 171 -298 15 -25 75 -129 134 -231 59 -102 117
-203 130 -225 12 -22 37 -65 55 -95 18 -30 43 -73 56 -96 l23 -40 -151 -260
c-83 -142 -189 -326 -237 -409 -48 -82 -141 -243 -207 -357 l-119 -208 -715 0
-715 0 -194 338 c-106 185 -202 349 -212 364 -11 15 -19 29 -19 31 0 3 -53 96
-118 208 -66 112 -130 225 -144 250 l-26 46 150 259 c83 142 172 296 199 342
27 45 49 85 49 89 0 3 6 14 14 22 8 9 22 32 32 51 11 19 75 133 144 252 l125
218 715 0 715 0 145 -251z"/>
<path d="M1515 2628 c-95 -11 -206 -51 -288 -105 -343 -227 -350 -732 -14
-972 l47 -34 0 -62 c0 -34 9 -96 20 -139 77 -302 345 -499 677 -498 233 0 406
87 546 276 l37 49 -46 29 c-26 16 -47 28 -48 26 -1 -2 -19 -29 -40 -61 -53
-78 -133 -149 -214 -189 -55 -27 -80 -34 -147 -36 -261 -12 -470 159 -521 425
-21 110 -26 102 74 102 187 1 343 74 460 216 57 70 58 76 17 103 -45 28 -47
28 -64 -10 -23 -51 -139 -160 -206 -193 -53 -26 -71 -29 -150 -30 -49 0 -102
3 -117 8 -24 6 -26 10 -21 45 40 289 262 487 533 476 151 -6 277 -90 362 -241
17 -29 32 -53 35 -53 10 0 83 55 83 63 0 19 -39 67 -111 139 -134 132 -288
191 -479 184 -199 -8 -355 -72 -483 -199 -61 -60 -129 -159 -147 -213 -6 -19
-15 -34 -20 -34 -13 0 -68 118 -84 181 -19 74 -18 225 1 302 58 230 231 367
458 364 76 -2 99 -6 145 -29 66 -32 140 -103 183 -175 17 -29 36 -53 40 -53 7
0 48 25 76 47 8 6 -53 84 -107 136 -134 127 -290 176 -487 155z"/>
</g>
</svg>
